# xmcd CD database file
#
# Track frame offsets:
#	150
#	27171
#	44468
#	60617
#	87714
#	107045
#	128631
#	146367
#	172627
#	198014
#	212022
#	236165
#	251056
#	278653
#	291358
#
# Disc length: 4215 seconds
#
# Revision: 0
# Processed by: cddbd v1.5.2PL0 Copyright (c) Steve Scherf et al.
# Submitted via: CDex 1.70beta2
#
DISCID=d610750f
DTITLE=Nina and Jensens Jazz Serenaders - Jazz Classics and Evergreens
DYEAR=2002
DGENRE=Jazz
TTITLE0=On A Coconut Island
TTITLE1=Ice Cream
TTITLE2=Sweet Sue
TTITLE3=One Night With You
TTITLE4=I Love You
TTITLE5=In The Garden
TTITLE6=Old Spinning Wheel
TTITLE7=How Great Thou Art
TTITLE8=Rico Vacilon
TTITLE9=She's Crying For Me
TTITLE10=Trust In Me
TTITLE11=Let The Four Winds Blow
TTITLE12=That Same Old Love
TTITLE13=Beneath Hawaiian Skies
TTITLE14=Mack The Knife
EXTD=YEAR: 2002
EXTT0=
EXTT1=
EXTT2=
EXTT3=
EXTT4=
EXTT5=
EXTT6=
EXTT7=
EXTT8=
EXTT9=
EXTT10=
EXTT11=
EXTT12=
EXTT13=
EXTT14=
PLAYORDER=
